HIERARCHY
ROOT Hips
{
	OFFSET 0.000000 83.214638 0.000000
	CHANNELS 6 Xposition Yposition Zposition Xrotation Yrotation Zrotation
	JOINT Pelvis
	{
		OFFSET 0.000000 0.000000 0.000000
		CHANNELS 3 Xrotation Yrotation Zrotation
		JOINT LeftUpLeg
		{
			OFFSET 8.479700 -4.795502 -0.379100
			CHANNELS 3 Xrotation Yrotation Zrotation
			JOINT LeftLeg
			{
				OFFSET 0.024144 -32.555107 0.112900
				CHANNELS 3 Xrotation Yrotation Zrotation
				JOINT LeftFoot
				{
					OFFSET -0.024144 -32.638630 -3.012600
					CHANNELS 3 Xrotation Yrotation Zrotation
					JOINT LeftToeBase
					{
						OFFSET 0.970200 -13.225400 11.864200
						CHANNELS 3 Xrotation Yrotation Zrotation
						End Site
						{
							OFFSET 0.000000 12.319262 0.000000
						}
					}
					JOINT LFootTongue
					{
						OFFSET 1.142400 -1.059800 6.665200
						CHANNELS 3 Xrotation Yrotation Zrotation
						End Site
						{
							OFFSET 0.000000 12.319262 0.000000
						}
					}
				}
				JOINT LeftPantLeg
				{
					OFFSET 0.918482 -16.533964 -2.284700
					CHANNELS 3 Xrotation Yrotation Zrotation
					End Site
					{
						OFFSET 0.350399 24.744368 0.000000
					}
				}
			}
		}
		JOINT RightUpLeg
		{
			OFFSET -8.479700 -4.795502 -0.379100
			CHANNELS 3 Xrotation Yrotation Zrotation
			JOINT RightLeg
			{
				OFFSET -0.023144 -32.555092 0.112900
				CHANNELS 3 Xrotation Yrotation Zrotation
				JOINT RightFoot
				{
					OFFSET 0.023144 -32.638641 -3.012700
					CHANNELS 3 Xrotation Yrotation Zrotation
					JOINT RightToeBase
					{
						OFFSET -0.970200 -13.225400 11.864200
						CHANNELS 3 Xrotation Yrotation Zrotation
						End Site
						{
							OFFSET 0.000000 12.319244 0.000000
						}
					}
					JOINT RFootTongue
					{
						OFFSET -1.142200 -1.059800 6.665200
						CHANNELS 3 Xrotation Yrotation Zrotation
						End Site
						{
							OFFSET 0.000000 12.319243 0.000000
						}
					}
				}
				JOINT RightPantLeg
				{
					OFFSET -0.919482 -16.533978 -2.284800
					CHANNELS 3 Xrotation Yrotation Zrotation
					End Site
					{
						OFFSET -0.350400 24.744419 0.000000
					}
				}
			}
		}
	}
	JOINT Spine
	{
		OFFSET 0.000000 7.722000 1.166200
		CHANNELS 3 Xrotation Yrotation Zrotation
		JOINT Spine1
		{
			OFFSET 0.000000 12.024101 0.248800
			CHANNELS 3 Xrotation Yrotation Zrotation
			JOINT Spine2
			{
				OFFSET 0.000000 11.502998 -0.491200
				CHANNELS 3 Xrotation Yrotation Zrotation
				JOINT Neck
				{
					OFFSET 0.000000 18.430702 -3.123100
					CHANNELS 3 Xrotation Yrotation Zrotation
					JOINT Head
					{
						OFFSET 0.000000 9.051102 1.034000
						CHANNELS 3 Xrotation Yrotation Zrotation
						JOINT HairB
						{
							OFFSET 0.208400 24.786102 24.822300
							CHANNELS 3 Xrotation Yrotation Zrotation
							End Site
							{
								OFFSET 0.000000 32.263779 0.000000
							}
						}
						JOINT HairA
						{
							OFFSET -7.081100 24.428299 23.196600
							CHANNELS 3 Xrotation Yrotation Zrotation
							End Site
							{
								OFFSET 0.000000 32.263779 0.000000
							}
						}
						JOINT Hat
						{
							OFFSET 16.728800 15.048294 -15.439601
							CHANNELS 3 Xrotation Yrotation Zrotation
							End Site
							{
								OFFSET 0.000000 32.263779 0.000000
							}
						}
					}
				}
				JOINT LeftShoulder
				{
					OFFSET 6.197800 13.665199 -4.064700
					CHANNELS 3 Xrotation Yrotation Zrotation
					JOINT LeftArm
					{
						OFFSET 7.778100 -0.187103 -1.709300
						CHANNELS 3 Xrotation Yrotation Zrotation
						JOINT LeftForeArm
						{
							OFFSET 22.049376 0.000000 0.000000
							CHANNELS 3 Xrotation Yrotation Zrotation
							JOINT LeftHand
							{
								OFFSET 23.009392 0.000000 0.000000
								CHANNELS 3 Xrotation Yrotation Zrotation
								JOINT LeftHandThumb1
								{
									OFFSET 3.507191 -2.063065 3.133727
									CHANNELS 3 Xrotation Yrotation Zrotation
									JOINT LeftHandThumb2
									{
										OFFSET 3.101337 -1.790558 1.790558
										CHANNELS 3 Xrotation Yrotation Zrotation
										JOINT LeftHandThumb3
										{
											OFFSET 3.058640 -1.765907 1.765906
											CHANNELS 3 Xrotation Yrotation Zrotation
											End Site
											{
												OFFSET -0.415260 3.926476 -0.049563
											}
										}
									}
								}
								JOINT LeftHandIndex1
								{
									OFFSET 11.334419 -0.901459 3.706815
									CHANNELS 3 Xrotation Yrotation Zrotation
									JOINT LeftHandIndex2
									{
										OFFSET 3.283112 0.000000 0.000000
										CHANNELS 3 Xrotation Yrotation Zrotation
										JOINT LeftHandIndex3
										{
											OFFSET 3.323853 0.000000 0.000000
											CHANNELS 3 Xrotation Yrotation Zrotation
											End Site
											{
												OFFSET -1.135597 3.097809 0.402452
											}
										}
									}
								}
								JOINT LeftHandMiddle1
								{
									OFFSET 11.335861 0.000000 0.000000
									CHANNELS 3 Xrotation Yrotation Zrotation
									JOINT LeftHandMiddle2
									{
										OFFSET 3.410492 0.000000 0.000000
										CHANNELS 3 Xrotation Yrotation Zrotation
										JOINT LeftHandMiddle3
										{
											OFFSET 3.312172 0.000000 0.000000
											CHANNELS 3 Xrotation Yrotation Zrotation
											End Site
											{
												OFFSET -1.150200 3.080154 0.400270
											}
										}
									}
								}
								JOINT LeftHandRing1
								{
									OFFSET 11.514786 -0.013176 -3.003090
									CHANNELS 3 Xrotation Yrotation Zrotation
									JOINT LeftHandRing2
									{
										OFFSET 3.053307 0.000000 0.000000
										CHANNELS 3 Xrotation Yrotation Zrotation
										JOINT LeftHandRing3
										{
											OFFSET 3.295807 0.000000 0.000000
											CHANNELS 3 Xrotation Yrotation Zrotation
											End Site
											{
												OFFSET -1.281006 3.013344 0.375733
											}
										}
									}
								}
								JOINT LeftHandPinky1
								{
									OFFSET 10.518692 -0.960396 -5.730441
									CHANNELS 3 Xrotation Yrotation Zrotation
									JOINT LeftHandPinky2
									{
										OFFSET 2.861649 0.000000 0.000000
										CHANNELS 3 Xrotation Yrotation Zrotation
										JOINT LeftHandPinky3
										{
											OFFSET 2.863380 0.000000 0.000000
											CHANNELS 3 Xrotation Yrotation Zrotation
											End Site
											{
												OFFSET -0.843597 2.711159 0.369971
											}
										}
									}
								}
							}
							JOINT LSleeve
							{
								OFFSET 6.676277 -0.344902 -1.011730
								CHANNELS 3 Xrotation Yrotation Zrotation
								End Site
								{
									OFFSET 0.000000 14.885353 0.000000
								}
							}
						}
					}
				}
				JOINT RightShoulder
				{
					OFFSET -6.197800 13.665199 -4.064700
					CHANNELS 3 Xrotation Yrotation Zrotation
					JOINT RightArm
					{
						OFFSET -7.778100 -0.187103 -1.709300
						CHANNELS 3 Xrotation Yrotation Zrotation
						JOINT RightForeArm
						{
							OFFSET -22.049376 0.000000 0.000000
							CHANNELS 3 Xrotation Yrotation Zrotation
							JOINT RightHand
							{
								OFFSET -23.009392 0.000000 0.000000
								CHANNELS 3 Xrotation Yrotation Zrotation
								JOINT RightHandThumb1
								{
									OFFSET -3.507191 -2.063065 3.133727
									CHANNELS 3 Xrotation Yrotation Zrotation
									JOINT RightHandThumb2
									{
										OFFSET -3.101337 -1.790558 1.790558
										CHANNELS 3 Xrotation Yrotation Zrotation
										JOINT RightHandThumb3
										{
											OFFSET -3.058640 -1.765907 1.765906
											CHANNELS 3 Xrotation Yrotation Zrotation
											End Site
											{
												OFFSET 0.415260 3.926476 -0.049563
											}
										}
									}
								}
								JOINT RightHandIndex1
								{
									OFFSET -11.334419 -0.901459 3.706815
									CHANNELS 3 Xrotation Yrotation Zrotation
									JOINT RightHandIndex2
									{
										OFFSET -3.283112 0.000000 0.000000
										CHANNELS 3 Xrotation Yrotation Zrotation
										JOINT RightHandIndex3
										{
											OFFSET -3.323853 0.000000 0.000000
											CHANNELS 3 Xrotation Yrotation Zrotation
											End Site
											{
												OFFSET 1.135597 3.097809 0.402452
											}
										}
									}
								}
								JOINT RightHandMiddle1
								{
									OFFSET -11.335861 0.000000 0.000000
									CHANNELS 3 Xrotation Yrotation Zrotation
									JOINT RightHandMiddle2
									{
										OFFSET -3.410492 0.000000 0.000000
										CHANNELS 3 Xrotation Yrotation Zrotation
										JOINT RightHandMiddle3
										{
											OFFSET -3.312172 0.000000 0.000000
											CHANNELS 3 Xrotation Yrotation Zrotation
											End Site
											{
												OFFSET 1.150200 3.080154 0.400270
											}
										}
									}
								}
								JOINT RightHandRing1
								{
									OFFSET -11.514786 -0.013176 -3.003090
									CHANNELS 3 Xrotation Yrotation Zrotation
									JOINT RightHandRing2
									{
										OFFSET -3.053307 0.000000 0.000000
										CHANNELS 3 Xrotation Yrotation Zrotation
										JOINT RightHandRing3
										{
											OFFSET -3.295807 0.000000 0.000000
											CHANNELS 3 Xrotation Yrotation Zrotation
											End Site
											{
												OFFSET 1.281006 3.013344 0.375733
											}
										}
									}
								}
								JOINT RightHandPinky1
								{
									OFFSET -10.518692 -0.960396 -5.730441
									CHANNELS 3 Xrotation Yrotation Zrotation
									JOINT RightHandPinky2
									{
										OFFSET -2.861649 0.000000 0.000000
										CHANNELS 3 Xrotation Yrotation Zrotation
										JOINT RightHandPinky3
										{
											OFFSET -2.863380 0.000000 0.000000
											CHANNELS 3 Xrotation Yrotation Zrotation
											End Site
											{
												OFFSET 0.843597 2.711159 0.369971
											}
										}
									}
								}
							}
							JOINT RSleeve
							{
								OFFSET -6.676277 -0.344902 -1.011730
								CHANNELS 3 Xrotation Yrotation Zrotation
								End Site
								{
									OFFSET 0.000000 14.885353 0.000000
								}
							}
						}
					}
				}
				JOINT Backpack
				{
					OFFSET 0.000000 -2.471497 36.677502
					CHANNELS 3 Xrotation Yrotation Zrotation
					End Site
					{
						OFFSET 0.000000 20.427315 0.000000
					}
				}
				JOINT Hood
				{
					OFFSET 0.000000 18.754097 -10.431000
					CHANNELS 3 Xrotation Yrotation Zrotation
					JOINT Hood1
					{
						OFFSET 0.000000 -5.011002 -7.685901
						CHANNELS 3 Xrotation Yrotation Zrotation
						End Site
						{
							OFFSET 0.000000 9.175140 0.000000
						}
					}
				}
				JOINT LHoodieString
				{
					OFFSET 5.250500 16.397697 3.089900
					CHANNELS 3 Xrotation Yrotation Zrotation
					JOINT LHoodieString1
					{
						OFFSET 0.257700 -6.364304 3.694600
						CHANNELS 3 Xrotation Yrotation Zrotation
						JOINT LHoodieString2
						{
							OFFSET 0.000000 -9.643799 2.679100
							CHANNELS 3 Xrotation Yrotation Zrotation
							End Site
							{
								OFFSET 0.000000 10.009018 0.000000
							}
						}
					}
				}
				JOINT RHoodieString
				{
					OFFSET -5.250500 16.397697 3.089900
					CHANNELS 3 Xrotation Yrotation Zrotation
					JOINT RHoodieString1
					{
						OFFSET -0.257700 -6.364304 3.694600
						CHANNELS 3 Xrotation Yrotation Zrotation
						JOINT RHoodieString2
						{
							OFFSET 0.000000 -9.643799 2.679100
							CHANNELS 3 Xrotation Yrotation Zrotation
							End Site
							{
								OFFSET 0.000000 10.009018 0.000000
							}
						}
					}
				}
			}
			JOINT LBackpack_Strap
			{
				OFFSET 15.223200 -7.719803 -6.610900
				CHANNELS 3 Xrotation Yrotation Zrotation
				End Site
				{
					OFFSET 0.000000 16.040596 0.000000
				}
			}
			JOINT RBackpack_Strap
			{
				OFFSET -15.223000 -7.719803 -6.610900
				CHANNELS 3 Xrotation Yrotation Zrotation
				End Site
				{
					OFFSET 0.000000 16.040596 0.000000
				}
			}
		}
	}
	JOINT BoyFacialAnim_Joint
	{
		OFFSET 1.000000 -82.208099 -1.550900
		CHANNELS 3 Xrotation Yrotation Zrotation
		End Site
		{
			OFFSET 0.000000 30.012791 0.000000
		}
	}
}
MOTION
Frames: 5
Frame Time: 0.016667
-2.069052 79.026695 -2.132611 -6.265360 -26.222618 1.595815 0.000000 -0.000002 -0.000000 -17.252479 9.608815 10.408635 30.577073 9.782321 1.664590 2.165497 18.868672 -10.518047 0.000000 -0.000001 -0.000001 0.000000 -0.000001 -0.000001 -0.000000 0.000000 -0.000001 -13.268375 -32.884721 -14.492854 36.822964 7.115646 -6.492134 -22.185629 -19.829091 3.599471 -0.000000 0.000000 -0.000000 -0.000000 0.000000 -0.000000 -0.000000 -0.000001 0.000001 5.564246 -2.811514 -2.370854 1.469060 -2.839389 -0.460261 1.463318 -2.694946 0.220315 2.455874 4.751727 1.127228 -0.495922 -18.984325 -3.620251 -0.000000 0.000000 -0.000001 -0.000000 0.000000 -0.000001 -0.000000 0.000000 -0.000001 -0.595443 -16.331995 -20.041824 12.420918 10.550278 -35.769714 0.000163 -96.391857 0.000146 -130.486365 -9.490875 13.340957 -12.800119 -17.470132 4.121652 1.000142 0.731291 -1.438330 -0.000001 -0.000001 -0.000001 -3.532541 4.254386 -63.954586 3.402099 5.315511 -65.218922 -0.000002 0.000001 -0.000003 2.434378 7.296048 -69.364082 3.297862 5.266374 -64.088655 0.000005 -0.000000 0.000000 4.717047 8.075508 -77.582295 2.056302 4.456880 -49.517652 0.000001 0.000001 -0.000000 6.410333 8.363712 -80.414570 1.722720 4.149907 -45.074399 -0.000002 0.000001 -0.000000 0.000001 -0.000001 0.000000 0.930388 18.037666 10.376102 6.836824 30.018931 41.382859 0.007774 94.273604 -0.007771 -34.121043 -22.154902 26.633986 20.470538 7.475571 18.843594 4.151722 -12.160908 -33.847996 -0.000001 -0.000000 0.000003 -0.887100 1.427985 12.684525 1.917415 -3.767473 53.934322 -0.000000 0.000001 -0.000002 0.770899 -5.199594 54.618823 5.563874 -4.568241 101.238594 -0.000001 0.000000 -0.000000 6.934468 -8.544280 63.908769 2.909291 -4.317419 67.934714 -0.000001 -0.000000 -0.000001 8.373389 -8.171737 73.989937 2.173681 -3.940996 57.745377 0.000000 -0.000003 0.000003 -0.000000 -0.000001 -0.000001 0.000000 0.000001 -0.000000 0.000000 0.000001 -0.000000 0.000000 0.000001 -0.000000 0.000000 0.000001 -0.000000 0.000000 0.000001 -0.000000 -0.000000 -0.000000 0.000000 0.000000 0.000001 -0.000000 0.000000 0.000001 -0.000000 -0.000000 -0.000000 0.000000 -0.000000 -0.000002 -0.000000 -0.000000 -0.000002 -0.000000 0.000000 -0.000002 -0.000000 
-2.351433 79.100624 -2.037605 -6.319644 -26.919374 1.476510 -0.000000 0.000001 -0.000000 -17.223516 9.540028 10.651423 30.988186 9.557591 1.670171 2.650619 19.617248 -10.377262 -0.000000 -0.000002 0.000000 -0.000000 -0.000002 -0.000000 0.000001 0.000000 -0.000001 -12.669355 -32.662450 -14.023916 36.342217 7.130149 -6.467250 -22.151109 -19.489149 3.520690 0.000000 0.000002 -0.000000 0.000000 0.000002 -0.000000 0.000002 0.000000 0.000001 5.593746 -2.695759 -2.334571 1.469656 -2.769742 -0.466833 1.463645 -2.627369 0.198466 2.455876 4.751709 1.127230 -0.517745 -18.807906 -3.545888 -0.000000 -0.000000 0.000000 -0.000000 -0.000000 0.000000 -0.000000 -0.000000 0.000000 -0.595443 -16.331997 -20.041822 11.979360 10.162493 -35.915426 -0.000872 -96.251074 -0.000823 -130.145157 -9.203691 13.619354 -12.800119 -17.470128 4.121652 1.000145 0.731294 -1.438327 0.000000 0.000001 0.000002 -3.532540 4.254390 -63.954579 3.402095 5.315509 -65.218922 -0.000004 -0.000002 -0.000002 2.434378 7.296052 -69.364075 3.297865 5.266371 -64.088655 0.000000 -0.000000 0.000000 4.717047 8.075512 -77.582288 2.056305 4.456887 -49.517663 -0.000003 0.000001 -0.000000 6.410330 8.363714 -80.414563 1.722720 4.149911 -45.074399 -0.000006 0.000000 -0.000000 -0.000001 0.000002 0.000002 0.928819 18.095135 10.321578 7.039711 29.557391 41.115034 0.001984 94.754340 -0.001982 -34.318750 -22.151494 26.224431 20.470543 7.475570 18.843595 4.151722 -12.160908 -33.847993 0.000001 0.000001 0.000001 -0.887096 1.427980 12.684535 1.917414 -3.767472 53.934326 -0.000000 0.000000 0.000002 0.770901 -5.199599 54.618827 5.563871 -4.568242 101.238594 -0.000001 0.000001 0.000002 6.934470 -8.544281 63.908769 2.909293 -4.317418 67.934714 -0.000002 -0.000002 0.000002 8.373392 -8.171738 73.989937 2.173679 -3.940996 57.745370 0.000001 -0.000002 -0.000000 -0.000003 0.000000 0.000000 0.000000 -0.000002 0.000000 0.000000 -0.000002 0.000000 0.000000 -0.000002 0.000000 0.000000 -0.000002 0.000000 0.000000 -0.000002 0.000000 -0.000000 -0.000004 0.000000 0.000000 -0.000002 0.000000 0.000000 -0.000002 0.000000 -0.000000 -0.000004 0.000000 0.000000 0.000002 -0.000000 0.000000 0.000002 -0.000000 -0.000000 0.000001 -0.000000 
-2.621330 79.177711 -1.944571 -6.375503 -27.616207 1.359275 0.000000 -0.000001 -0.000000 -17.104839 9.488699 10.875383 31.258617 9.431417 1.674940 3.133423 20.271819 -10.309363 -0.000000 0.000001 -0.000000 -0.000000 0.000001 -0.000000 -0.000000 0.000000 -0.000000 -12.068141 -32.398879 -13.561390 35.838289 7.087207 -6.436641 -22.086469 -19.127509 3.472967 0.000000 -0.000000 -0.000000 0.000000 -0.000000 -0.000000 -0.000001 -0.000001 0.000001 5.620916 -2.568741 -2.302225 1.470253 -2.697862 -0.473616 1.463942 -2.557625 0.176189 2.455875 4.751713 1.127230 -0.552613 -18.607542 -3.469238 -0.000000 -0.000001 -0.000000 -0.000000 -0.000001 -0.000000 -0.000000 -0.000001 -0.000000 -0.595443 -16.331997 -20.041821 11.555124 9.778313 -36.062309 0.001202 -96.110324 0.001155 -129.807472 -8.910032 13.881078 -12.800124 -17.470130 4.121650 1.000145 0.731295 -1.438329 -0.000003 0.000001 -0.000002 -3.532541 4.254387 -63.954579 3.402099 5.315511 -65.218922 -0.000005 0.000000 -0.000005 2.434379 7.296050 -69.364075 3.297863 5.266369 -64.088655 0.000000 -0.000001 -0.000002 4.717046 8.075509 -77.582288 2.056307 4.456878 -49.517652 -0.000003 0.000001 -0.000000 6.410331 8.363709 -80.414570 1.722721 4.149904 -45.074403 -0.000000 0.000001 0.000002 0.000002 0.000002 0.000003 0.926479 18.152628 10.275617 7.261007 29.087535 40.849169 0.000980 95.247439 -0.000963 -34.508380 -22.138977 25.801852 20.470543 7.475568 18.843590 4.151722 -12.160908 -33.847996 -0.000002 -0.000001 0.000002 -0.887098 1.427984 12.684530 1.917415 -3.767473 53.934316 -0.000000 -0.000001 0.000003 0.770901 -5.199595 54.618827 5.563875 -4.568242 101.238594 -0.000000 -0.000001 -0.000000 6.934472 -8.544281 63.908769 2.909293 -4.317418 67.934714 -0.000003 -0.000001 0.000000 8.373391 -8.171739 73.989937 2.173682 -3.940998 57.745370 -0.000000 0.000001 0.000001 0.000002 -0.000002 -0.000002 -0.000000 -0.000001 0.000000 -0.000000 -0.000001 0.000000 -0.000000 -0.000001 0.000000 -0.000000 -0.000001 0.000000 -0.000000 -0.000001 0.000000 -0.000000 -0.000001 0.000000 -0.000000 -0.000001 0.000000 -0.000000 -0.000001 0.000000 -0.000000 -0.000001 0.000000 0.000000 0.000001 -0.000000 0.000000 0.000001 -0.000000 0.000000 -0.000001 -0.000000 
-2.878084 79.256287 -1.855012 -6.433013 -28.313029 1.242427 -0.000000 -0.000001 -0.000000 -17.025903 9.462014 11.019955 31.451778 9.397347 1.676092 3.561025 20.610868 -10.233701 0.000000 -0.000001 -0.000001 0.000000 -0.000001 -0.000001 0.000001 0.000000 0.000002 -11.472886 -32.098580 -13.108779 35.321149 6.994096 -6.401055 -21.997174 -18.746009 3.451212 0.000000 0.000000 0.000000 0.000000 0.000000 0.000000 0.000001 0.000001 0.000001 5.646415 -2.433104 -2.271567 1.470858 -2.625028 -0.480489 1.464210 -2.487020 0.153859 2.455876 4.751705 1.127231 -0.597445 -18.386468 -3.389409 -0.000000 -0.000002 -0.000000 -0.000000 -0.000002 -0.000000 -0.000000 -0.000002 -0.000000 -0.595443 -16.331997 -20.041826 11.157875 9.410630 -36.208954 -0.000590 -95.973891 -0.000541 -129.478462 -8.615279 14.116776 -12.800119 -17.470125 4.121658 1.000144 0.731293 -1.438320 -0.000002 -0.000001 0.000002 -3.532541 4.254394 -63.954579 3.402096 5.315514 -65.218922 0.000003 -0.000001 -0.000002 2.434378 7.296052 -69.364068 3.297861 5.266372 -64.088655 -0.000003 0.000000 0.000000 4.717048 8.075514 -77.582288 2.056299 4.456885 -49.517656 -0.000000 -0.000001 -0.000000 6.410330 8.363715 -80.414563 1.722721 4.149909 -45.074403 -0.000000 0.000000 0.000001 0.000002 -0.000001 0.000001 0.923533 18.206701 10.240313 7.499870 28.626716 40.584666 0.000433 95.740695 -0.000445 -34.687280 -22.112905 25.372701 20.470541 7.475569 18.843592 4.151722 -12.160912 -33.847993 0.000001 -0.000000 0.000001 -0.887098 1.427982 12.684530 1.917414 -3.767475 53.934329 0.000001 0.000000 0.000004 0.770899 -5.199599 54.618827 5.563869 -4.568242 101.238594 0.000001 0.000004 0.000004 6.934472 -8.544283 63.908769 2.909292 -4.317421 67.934714 0.000003 -0.000001 0.000000 8.373394 -8.171739 73.989937 2.173680 -3.940998 57.745370 -0.000000 0.000001 0.000001 0.000002 0.000000 0.000002 -0.000000 0.000002 -0.000000 -0.000000 0.000002 -0.000000 -0.000000 0.000002 -0.000000 -0.000000 0.000002 -0.000000 -0.000000 0.000002 -0.000000 -0.000000 -0.000001 0.000000 -0.000000 0.000002 -0.000000 -0.000000 0.000002 -0.000000 -0.000000 -0.000001 0.000000 0.000000 -0.000000 -0.000000 0.000000 -0.000000 -0.000000 -0.000000 -0.000001 -0.000000 
-3.075064 79.331741 -1.769803 -6.492116 -29.006437 1.122939 -0.000000 -0.000001 -0.000000 -17.167011 9.462763 11.010965 31.718657 9.404028 1.669044 3.858268 20.495890 -10.022884 -0.000000 0.000000 -0.000000 -0.000000 0.000000 -0.000001 0.000000 0.000000 0.000001 -10.948628 -31.741255 -12.715118 34.834747 6.849715 -6.361789 -21.863268 -18.351030 3.478197 0.000000 -0.000000 -0.000000 0.000000 -0.000000 -0.000000 0.000002 0.000001 0.000001 5.664200 -2.257394 -2.240199 1.471477 -2.547698 -0.487784 1.464451 -2.412446 0.130487 2.455875 4.751718 1.127230 -0.635373 -18.136434 -3.296947 0.000000 0.000001 -0.000000 0.000000 0.000001 -0.000000 0.000000 0.000001 -0.000000 -0.595442 -16.332002 -20.041821 10.825690 9.127649 -36.348843 -0.001223 -95.854479 -0.001163 -129.181144 -8.345422 14.279322 -12.800120 -17.470128 4.121651 1.000142 0.731294 -1.438328 0.000001 -0.000002 0.000001 -3.532540 4.254389 -63.954579 3.402095 5.315513 -65.218922 -0.000001 -0.000002 -0.000002 2.434379 7.296052 -69.364075 3.297863 5.266373 -64.088655 -0.000007 -0.000001 -0.000000 4.717045 8.075511 -77.582288 2.056302 4.456879 -49.517652 -0.000003 0.000001 -0.000002 6.410330 8.363709 -80.414570 1.722722 4.149909 -45.074399 0.000000 -0.000001 -0.000000 -0.000001 0.000003 0.000002 0.917854 18.249080 10.245468 7.737184 28.253510 40.318139 0.000968 96.156045 -0.001018 -34.827739 -22.055760 24.996515 20.470545 7.475570 18.843597 4.151722 -12.160911 -33.847996 -0.000001 0.000001 -0.000002 -0.887098 1.427980 12.684535 1.917413 -3.767475 53.934326 -0.000000 0.000000 0.000002 0.770901 -5.199597 54.618823 5.563871 -4.568241 101.238594 -0.000001 0.000000 0.000002 6.934472 -8.544285 63.908775 2.909293 -4.317418 67.934714 -0.000002 -0.000000 0.000000 8.373395 -8.171741 73.989943 2.173678 -3.940995 57.745377 -0.000001 0.000000 0.000002 0.000002 -0.000001 -0.000000 0.000000 -0.000004 0.000000 0.000000 -0.000004 0.000000 0.000000 -0.000004 0.000000 0.000000 -0.000004 0.000000 0.000000 -0.000004 0.000000 0.000000 0.000001 -0.000000 0.000000 -0.000004 0.000000 0.000000 -0.000004 0.000000 0.000000 0.000001 -0.000000 0.000000 -0.000001 -0.000000 0.000000 -0.000001 -0.000000 -0.000000 -0.000001 -0.000000 
